<svg xmlns="http://www.w3.org/2000/svg" width="28" height="28" viewBox="0 0 24 24" fill="#25D366">
  <path d="M20.52 3.48A11.77 11.77 0 0 0 12.06 0C5.4 0 .01 5.38.01 12.03c0 2.12.55 4.19 1.6 6.02L0 24l6.1-1.6a12.1 12.1 0 0 0 5.96 1.55h.01c6.65 0 12.04-5.39 12.04-12.04 0-3.22-1.25-6.23-3.59-8.43zM12.07 22.06h-.01a9.98 9.98 0 0 1-5.07-1.39l-.36-.21-3.62.95.97-3.53-.23-.37a10 10 0 1 1 8.32 4.55zm5.49-7.54c-.3-.15-1.77-.87-2.05-.97-.28-.1-.48-.15-.68.15-.2.3-.78.97-.95 1.17-.17.2-.35.22-.65.07-.3-.15-1.25-.46-2.39-1.47-.88-.77-1.47-1.72-1.65-2.01-.17-.3-.02-.46.13-.61.13-.13.3-.35.45-.52.15-.17.2-.3.3-.5.1-.2.05-.37-.02-.52-.07-.15-.68-1.65-.93-2.26-.25-.6-.5-.52-.68-.53h-.58c-.2 0-.52.07-.8.37-.28.3-1.06 1.04-1.06 2.54 0 1.5 1.09 2.95 1.24 3.15.15.2 2.14 3.27 5.19 4.59.73.32 1.3.51 1.75.65.74.24 1.41.2 1.94.12.59-.09 1.77-.72 2.02-1.42.25-.7.25-1.3.18-1.42-.07-.12-.28-.2-.58-.35z"></path>
</svg>
